<svg width="42" height="42" viewBox="0 0 42 42" fill="none" xmlns="http://www.w3.org/2000/svg">
<path d="M39.0954 20.7286C39.0954 30.7405 30.9789 38.8662 20.9579 38.8662C10.9369 38.8662 2.82031 30.7405 2.82031 20.7286C2.82031 10.7076 10.9369 2.59106 20.9579 2.59106C30.9789 2.59106 39.0954 10.7076 39.0954 20.7286Z" fill="#283544"/>
<path d="M29.4589 16.1391C29.36 16.1968 27.0038 17.4153 27.0038 20.117C27.1149 23.1981 29.9771 24.2786 30.0262 24.2786C29.9771 24.3363 29.5941 25.7505 28.4595 27.233C27.5591 28.5099 26.5596 29.7974 25.042 29.7974C23.5984 29.7974 23.0802 28.9464 21.4145 28.9464C19.6257 28.9464 19.1195 29.7974 17.75 29.7974C16.2323 29.7974 15.1589 28.441 14.2093 27.176C12.9758 25.5203 11.9273 22.9221 11.8902 20.4274C11.8653 19.1054 12.1373 17.806 12.8277 16.7022C13.8022 15.1613 15.5419 14.1152 17.4418 14.0807C18.8974 14.035 20.193 15.012 21.0814 15.012C21.9327 15.012 23.5244 14.0807 25.3253 14.0807C26.1026 14.0815 28.1755 14.2997 29.4589 16.1391ZM20.9582 13.8168C20.6991 12.6095 21.4145 11.4023 22.0808 10.6322C22.9321 9.7009 24.2768 9.06879 25.4363 9.06879C25.5103 10.276 25.0412 11.46 24.2027 12.3224C23.4503 13.2537 22.1548 13.9548 20.9582 13.8168Z" fill="white"/>
</svg>
