<svg width="42" height="42" viewBox="0 0 42 42" fill="none" xmlns="http://www.w3.org/2000/svg">
<path d="M39.1834 21.1315C39.1834 19.6402 39.0599 18.5519 38.7927 17.4234H21.416V24.1544H31.6157C31.4102 25.8271 30.2997 28.3462 27.832 30.039L27.7974 30.2643L33.2916 34.4355L33.6722 34.4727C37.168 31.3087 39.1834 26.6533 39.1834 21.1315Z" fill="#4285F4"/>
<path d="M21.4144 38.8662C26.4114 38.8662 30.6064 37.2539 33.6706 34.4729L27.8303 30.0391C26.2675 31.1072 24.1699 31.8529 21.4144 31.8529C16.5202 31.8529 12.3663 28.6889 10.8855 24.3157L10.6685 24.3338L4.95557 28.6667L4.88086 28.8702C7.92431 34.7952 14.1758 38.8662 21.4144 38.8662Z" fill="#34A853"/>
<path d="M10.887 24.3158C10.4963 23.1873 10.2702 21.978 10.2702 20.7286C10.2702 19.479 10.4963 18.2699 10.8664 17.1414L10.8561 16.901L5.07157 12.4985L4.88231 12.5868C3.62795 15.0454 2.9082 17.8064 2.9082 20.7286C2.9082 23.6507 3.62795 26.4116 4.88231 28.8703L10.887 24.3158Z" fill="#FBBC05"/>
<path d="M21.4145 9.60421C24.8898 9.60421 27.2341 11.0754 28.5708 12.3048L33.7941 7.30683C30.5861 4.38468 26.4115 2.59106 21.4145 2.59106C14.1758 2.59106 7.92432 6.66191 4.88086 12.5868L10.865 17.1414C12.3663 12.7682 16.5203 9.60421 21.4145 9.60421Z" fill="#EB4335"/>
</svg>
